<svg xmlns="http://www.w3.org/2000/svg" xmlns:xlink="http://www.w3.org/1999/xlink" width="500" zoomAndPan="magnify" viewBox="0 0 375 374.999991" height="500" preserveAspectRatio="xMidYMid meet" version="1.0"><defs><g/></defs><rect x="-37.5" width="450" fill="#ffffff" y="-37.499999" height="449.999989" fill-opacity="1"/><rect x="-37.5" width="450" fill="#f5f5f5" y="-37.499999" height="449.999989" fill-opacity="1"/><path fill="#4b5fff" d="M 89.25 152.070312 C 69.632812 152.070312 53.671875 168.03125 53.671875 187.648438 C 53.671875 207.265625 69.632812 223.226562 89.25 223.226562 C 108.871094 223.226562 124.828125 207.265625 124.828125 187.648438 C 124.828125 168.03125 108.871094 152.070312 89.25 152.070312 Z M 89.25 214.332031 C 74.535156 214.332031 62.566406 202.359375 62.566406 187.648438 C 62.566406 172.933594 74.535156 160.964844 89.25 160.964844 C 103.960938 160.964844 115.933594 172.933594 115.933594 187.648438 C 115.933594 202.359375 103.960938 214.332031 89.25 214.332031 Z M 89.25 214.332031 " fill-opacity="1" fill-rule="nonzero"/><path fill="#4b5fff" d="M 85.914062 184.3125 L 76.378906 184.3125 L 76.378906 190.980469 L 92.585938 190.972656 L 92.585938 167.394531 L 85.914062 167.394531 Z M 85.914062 184.3125 " fill-opacity="1" fill-rule="nonzero"/><g fill="#4b5fff" fill-opacity="1"><g transform="translate(126.662106, 208.874986)"><g><path d="M 41.546875 -43.53125 L 41.546875 0 L 30.9375 0 L 30.9375 -17.921875 L 14.453125 -17.921875 L 14.453125 0 L 3.84375 0 L 3.84375 -43.53125 L 14.453125 -43.53125 L 14.453125 -26.46875 L 30.9375 -26.46875 L 30.9375 -43.53125 Z M 41.546875 -43.53125 "/></g></g></g><g fill="#4b5fff" fill-opacity="1"><g transform="translate(171.978337, 208.874986)"><g><path d="M 26.046875 0 L 16.984375 -16.4375 L 14.453125 -16.4375 L 14.453125 0 L 3.84375 0 L 3.84375 -43.53125 L 21.640625 -43.53125 C 25.066406 -43.53125 27.988281 -42.925781 30.40625 -41.71875 C 32.820312 -40.519531 34.628906 -38.878906 35.828125 -36.796875 C 37.035156 -34.710938 37.640625 -32.390625 37.640625 -29.828125 C 37.640625 -26.929688 36.820312 -24.34375 35.1875 -22.0625 C 33.550781 -19.789062 31.144531 -18.179688 27.96875 -17.234375 L 38 0 Z M 14.453125 -23.9375 L 21.015625 -23.9375 C 22.960938 -23.9375 24.421875 -24.410156 25.390625 -25.359375 C 26.359375 -26.304688 26.84375 -27.648438 26.84375 -29.390625 C 26.84375 -31.046875 26.359375 -32.347656 25.390625 -33.296875 C 24.421875 -34.242188 22.960938 -34.71875 21.015625 -34.71875 L 14.453125 -34.71875 Z M 14.453125 -23.9375 "/></g></g></g><g fill="#04b386" fill-opacity="1"><g transform="translate(212.408194, 207.909846)"><g><path d="M 28.21875 -13.828125 C 28.21875 -13.054688 28.171875 -12.253906 28.078125 -11.421875 L 9.5 -11.421875 C 9.632812 -9.753906 10.171875 -8.476562 11.109375 -7.59375 C 12.054688 -6.71875 13.21875 -6.28125 14.59375 -6.28125 C 16.632812 -6.28125 18.054688 -7.144531 18.859375 -8.875 L 27.59375 -8.875 C 27.144531 -7.113281 26.335938 -5.53125 25.171875 -4.125 C 24.003906 -2.71875 22.539062 -1.613281 20.78125 -0.8125 C 19.019531 -0.0078125 17.050781 0.390625 14.875 0.390625 C 12.25 0.390625 9.910156 -0.164062 7.859375 -1.28125 C 5.816406 -2.40625 4.21875 -4.007812 3.0625 -6.09375 C 1.914062 -8.175781 1.34375 -10.609375 1.34375 -13.390625 C 1.34375 -16.171875 1.910156 -18.601562 3.046875 -20.6875 C 4.179688 -22.769531 5.769531 -24.367188 7.8125 -25.484375 C 9.863281 -26.609375 12.21875 -27.171875 14.875 -27.171875 C 17.46875 -27.171875 19.769531 -26.625 21.78125 -25.53125 C 23.800781 -24.445312 25.378906 -22.894531 26.515625 -20.875 C 27.648438 -18.863281 28.21875 -16.515625 28.21875 -13.828125 Z M 19.828125 -15.984375 C 19.828125 -17.390625 19.34375 -18.507812 18.375 -19.34375 C 17.414062 -20.175781 16.21875 -20.59375 14.78125 -20.59375 C 13.40625 -20.59375 12.242188 -20.191406 11.296875 -19.390625 C 10.359375 -18.585938 9.773438 -17.453125 9.546875 -15.984375 Z M 19.828125 -15.984375 "/></g></g></g><g fill="#04b386" fill-opacity="1"><g transform="translate(241.976143, 207.909846)"><g><path d="M 1.34375 -13.4375 C 1.34375 -16.1875 1.863281 -18.601562 2.90625 -20.6875 C 3.945312 -22.769531 5.363281 -24.367188 7.15625 -25.484375 C 8.945312 -26.609375 10.945312 -27.171875 13.15625 -27.171875 C 15.039062 -27.171875 16.691406 -26.785156 18.109375 -26.015625 C 19.535156 -25.242188 20.632812 -24.234375 21.40625 -22.984375 L 21.40625 -26.78125 L 29.609375 -26.78125 L 29.609375 0 L 21.40625 0 L 21.40625 -3.796875 C 20.601562 -2.546875 19.488281 -1.535156 18.0625 -0.765625 C 16.644531 0.00390625 14.992188 0.390625 13.109375 0.390625 C 10.929688 0.390625 8.945312 -0.175781 7.15625 -1.3125 C 5.363281 -2.457031 3.945312 -4.078125 2.90625 -6.171875 C 1.863281 -8.265625 1.34375 -10.6875 1.34375 -13.4375 Z M 21.40625 -13.390625 C 21.40625 -15.441406 20.835938 -17.054688 19.703125 -18.234375 C 18.566406 -19.421875 17.179688 -20.015625 15.546875 -20.015625 C 13.921875 -20.015625 12.539062 -19.429688 11.40625 -18.265625 C 10.269531 -17.097656 9.703125 -15.488281 9.703125 -13.4375 C 9.703125 -11.394531 10.269531 -9.769531 11.40625 -8.5625 C 12.539062 -7.363281 13.921875 -6.765625 15.546875 -6.765625 C 17.179688 -6.765625 18.566406 -7.351562 19.703125 -8.53125 C 20.835938 -9.71875 21.40625 -11.335938 21.40625 -13.390625 Z M 21.40625 -13.390625 "/></g></g></g><g fill="#04b386" fill-opacity="1"><g transform="translate(274.568091, 207.909846)"><g><path d="M 1.34375 -13.4375 C 1.34375 -16.1875 1.863281 -18.601562 2.90625 -20.6875 C 3.945312 -22.769531 5.363281 -24.367188 7.15625 -25.484375 C 8.945312 -26.609375 10.945312 -27.171875 13.15625 -27.171875 C 14.914062 -27.171875 16.519531 -26.800781 17.96875 -26.0625 C 19.425781 -25.320312 20.570312 -24.332031 21.40625 -23.09375 L 21.40625 -35.515625 L 29.609375 -35.515625 L 29.609375 0 L 21.40625 0 L 21.40625 -3.84375 C 20.632812 -2.5625 19.535156 -1.535156 18.109375 -0.765625 C 16.691406 0.00390625 15.039062 0.390625 13.15625 0.390625 C 10.945312 0.390625 8.945312 -0.175781 7.15625 -1.3125 C 5.363281 -2.457031 3.945312 -4.078125 2.90625 -6.171875 C 1.863281 -8.265625 1.34375 -10.6875 1.34375 -13.4375 Z M 21.40625 -13.390625 C 21.40625 -15.441406 20.835938 -17.054688 19.703125 -18.234375 C 18.566406 -19.421875 17.179688 -20.015625 15.546875 -20.015625 C 13.921875 -20.015625 12.539062 -19.429688 11.40625 -18.265625 C 10.269531 -17.097656 9.703125 -15.488281 9.703125 -13.4375 C 9.703125 -11.394531 10.269531 -9.769531 11.40625 -8.5625 C 12.539062 -7.363281 13.921875 -6.765625 15.546875 -6.765625 C 17.179688 -6.765625 18.566406 -7.351562 19.703125 -8.53125 C 20.835938 -9.71875 21.40625 -11.335938 21.40625 -13.390625 Z M 21.40625 -13.390625 "/></g></g></g><g fill="#04b386" fill-opacity="1"><g transform="translate(307.160038, 207.909846)"><g><path d="M 30.34375 -26.78125 L 13.53125 12.71875 L 4.703125 12.71875 L 10.84375 -0.90625 L -0.046875 -26.78125 L 9.125 -26.78125 L 15.3125 -10.03125 L 21.453125 -26.78125 Z M 30.34375 -26.78125 "/></g></g></g></svg>